<svg xmlns="http://www.w3.org/2000/svg" viewBox="0 0 680 140" fill="none">
  <g fill="#2d3436">
    <!-- p -->
    <path d="M0 40h28v8c6-8 16-14 30-14 24 0 42 20 42 44s-18 44-42 44c-13 0-23-5-30-13v36H0V40zm28 38c0 16 10 26 24 26s24-10 24-26-10-26-24-26-24 10-24 26z"/>
    <!-- r -->
    <path d="M118 40h28v18c5-13 15-20 28-20h4v28h-8c-16 0-24 7-24 22v32h-28V40z"/>
    <!-- o -->
    <path d="M224 34c28 0 46 20 46 44s-18 44-46 44-46-20-46-44 18-44 46-44zm0 62c12 0 20-8 20-18s-8-18-20-18-20 8-20 18 8 18 20 18z"/>
    <!-- m -->
    <path d="M288 40h28v10c6-8 14-14 26-14s21 5 26 14c7-9 17-14 29-14 20 0 32 13 32 36v48h-28V76c0-12-5-18-15-18s-16 7-16 20v42h-28V76c0-12-5-18-15-18s-16 7-16 20v42h-28V40z"/>
    <!-- q - chat bubble with tail bottom-right -->
    <path d="M486 34c26 0 44 20 44 44 0 23-16 42-40 44l-4 0-10 16c-2 3-4 2-5-1l-5-13c-17-6-29-22-29-42 0-26 21-48 49-48zm2 62c12 0 20-8 20-18s-8-18-20-18-20 8-20 18 8 18 20 18z"/>
    <!-- t -->
    <path d="M556 10h28v30h20v22h-20v34c0 8 3 12 10 12h10v18h-16c-20 0-32-10-32-30V62h-14V40h14V10z"/>
  </g>
</svg>
